<?xml version="1.0" encoding="utf-8"?>
<!-- Generator: Adobe Illustrator 27.1.0, SVG Export Plug-In . SVG Version: 6.00 Build 0)  -->
<svg version="1.0" id="Layer_1" xmlns="http://www.w3.org/2000/svg" xmlns:xlink="http://www.w3.org/1999/xlink" x="0px" y="0px"
	 viewBox="0 0 573.74 133.13" style="enable-background:new 0 0 573.74 133.13;" xml:space="preserve">
<style type="text/css">
	.st0{fill:#16498F;}
	.st1{fill:#ED2024;}
	.st2{clip-path:url(#SVGID_00000014626636476958059610000013459726844361735819_);}
	.st3{opacity:0.57;fill:#ED2024;}
	.st4{fill:#FFFFFF;}
	.st5{fill:#154A8F;}
	.st6{fill:#E12826;}
</style>
<g>
	<rect class="st0" width="573.74" height="133.13"/>
	<rect class="st1" width="129.14" height="133.13"/>
	<g>
		<path class="st4" d="M53.07,60.34c6.53-11.2,15.57-20.01,26.1-27.19c4.06-2.77,8.74-4.66,13.29-6.59
			c1.55-0.66,3.61-0.56,5.33-0.23c3.61,0.69,5.34,4.47,3.01,7.27c-2.32,2.8-5.24,5.33-8.37,7.15c-8.37,4.85-16.1,10.36-21.84,18.33
			c-6.7,9.31-8.87,19.63-6.21,30.82c2.44,10.26,9.83,16.72,20.21,17.56c13.81,1.11,25.28-3.49,33.57-15.05
			c1.56-2.17,2.68-4.66,4.34-7.59c-0.19,1.65-0.25,2.74-0.45,3.81c-3.03,15.85-10.3,28.85-24.61,37.02
			c-8.75,4.99-18.36,6.61-28.26,6.72c-11.78,0.13-23.03-2.31-33.59-7.7C18.62,116.01,9.61,101.8,7.43,82.95
			c-2.36-20.43,4.1-38.5,14.85-55.34c1.31-2.05,3.04-3.89,4.86-5.51c1.25-1.12,2.88-2.07,4.49-2.46c3.93-0.95,6.36,1.46,5.2,5.35
			c-0.87,2.92-2.39,5.7-3.92,8.36c-3.37,5.86-7.13,11.51-8.19,18.4c-0.02,0.15,0,0.32,0.45,0.96c0.46-0.49,1.15-0.91,1.35-1.49
			c5.26-15.87,14.14-29.48,25.54-41.43c2.52-2.64,5.75-4.74,8.98-6.45c1.67-0.88,4.18-0.79,6.11-0.32c2.8,0.68,4.05,3.24,2.71,5.78
			c-1.6,3.04-3.64,5.97-5.99,8.46c-7.54,8.02-14.25,16.62-19.13,26.56c-1.43,2.92-2.51,6.02-3.68,9.06
			c-0.24,0.63-0.22,1.37,0.22,2.2c0.21-0.27,0.52-0.51,0.63-0.82c4.14-11.78,11.73-21.21,20.12-30.07
			c5.48-5.78,11.47-10.96,18.6-14.6c3.04-1.55,6.24-2.77,9.77-2.11c5.02,0.93,6.94,5.58,3.57,9.41c-2.31,2.62-5.18,4.91-8.16,6.76
			c-11.99,7.45-22.57,16.32-29.76,28.78c-1.4,2.42-2.44,5.05-3.65,7.59C52.62,60.12,52.85,60.23,53.07,60.34"/>
		<path class="st4" d="M104.04,97.81c1.14-2.72,2.24-4.84,2.93-7.09c1.46-4.75-0.4-7.17-5.32-7.14c-4.18,0.03-8.35,0.14-12.53,0.13
			c-1.41,0-2.85-0.11-4.21-0.45c-2.78-0.7-4.94-2.29-5.48-5.29c-0.57-3.17,0.04-6.14,2.89-8.02c1.42-0.94,3.08-1.78,4.73-2.03
			c7.68-1.14,15.41-1.32,23.02,0.48c10.24,2.42,13.26,10.48,7.39,19.35C114.28,92.53,109.82,95.6,104.04,97.81"/>
		<path class="st4" d="M95.45,52.21c0.04-5.7,4.53-10.11,10.13-9.97c5.37,0.13,9.69,4.58,9.72,10c0.03,5.64-4.44,10.08-10.1,10.02
			C99.62,62.2,95.4,57.86,95.45,52.21"/>
	</g>
	<path class="st4" d="M207.21,86.68c-3.18,3.57-6.88,6.26-11.08,8.06c-4.2,1.8-8.9,2.71-14.09,2.71c-11.56,0-21.24-3.99-29.06-11.97
		c-7.82-7.98-11.73-17.95-11.73-29.9c0-12.21,3.87-22.24,11.62-30.09c7.75-7.85,17.7-11.78,29.86-11.78c4.76,0,9.07,0.67,12.93,1.99
		c3.86,1.33,7.01,3.23,9.44,5.71v-6.18h11.64v26.89h-11.64c-2.11-4.92-5.03-8.61-8.75-11.07c-3.72-2.46-8.19-3.69-13.42-3.69
		c-8.09,0-14.54,2.57-19.37,7.71c-4.83,5.14-7.24,11.97-7.24,20.5c0,8.16,2.5,14.9,7.51,20.22c5.01,5.32,11.3,7.98,18.89,7.98
		c5.33,0,9.92-1.14,13.76-3.42c3.85-2.28,7.2-5.84,10.06-10.69h-18.14V58.04h37.83v11.64H218v26.18h-10.36L207.21,86.68z"/>
	<path class="st4" d="M251.81,84.66h9.49v11.2h-32.02v-11.2h8.52V26.45h-8.52v-11.2h30.94l15.63,46.24l15.8-46.24h29.81v11.2h-8.46
		v58.21h8.46v11.2h-32.02v-11.2h9.49V30.16L279.3,85.09h-7.6l-19.89-54.93V84.66z"/>
	<path class="st4" d="M324.51,69.79c0-7.72,2.62-14.21,7.87-19.46c5.25-5.25,11.78-7.87,19.6-7.87c7.82,0,14.34,2.62,19.57,7.87
		c5.23,5.25,7.84,11.73,7.84,19.46c0,7.69-2.61,14.14-7.82,19.35c-5.21,5.21-11.75,7.82-19.6,7.82c-7.82,0-14.35-2.6-19.6-7.82
		C327.14,83.93,324.51,77.48,324.51,69.79z M337.34,69.79c0,4.56,1.41,8.36,4.22,11.42c2.81,3.06,6.29,4.59,10.42,4.59
		c4.13,0,7.6-1.52,10.4-4.56c2.8-3.04,4.2-6.86,4.2-11.45c0-4.7-1.39-8.56-4.17-11.59c-2.78-3.02-6.25-4.54-10.42-4.54
		s-7.65,1.52-10.45,4.56C338.73,61.27,337.34,65.12,337.34,69.79z"/>
	<path class="st4" d="M403.23,50.88c3.04-2.95,6.01-5.09,8.89-6.42c2.88-1.33,5.94-1.99,9.16-1.99c5.41,0,9.42,1.48,12.04,4.45
		c2.61,2.97,3.92,7.53,3.92,13.69v24.38h7.15v10.88h-27.08V84.98h7.15V63.5c0-2.77-0.69-4.9-2.07-6.39
		c-1.38-1.49-3.36-2.24-5.94-2.24c-2.33,0-4.58,0.63-6.74,1.89c-2.17,1.26-4.33,3.18-6.48,5.77v22.46h7.15v10.88H383.3V84.98h7.15
		V54.65h-7.15V43.83h19.94V50.88z"/>
	<path class="st4" d="M499.52,80.5c-1.46,5.32-4.36,9.44-8.7,12.35c-4.34,2.92-9.76,4.37-16.26,4.37c-8.24,0-14.87-2.51-19.91-7.54
		c-5.04-5.03-7.56-11.62-7.56-19.79c0-7.98,2.56-14.53,7.69-19.65c5.12-5.12,11.68-7.68,19.68-7.68c7.96,0,14.35,2.71,19.18,8.12
		c4.83,5.41,7.24,12.63,7.24,21.67v1.31H459.8c0.42,4.01,1.93,7.09,4.53,9.24s6.12,3.22,10.53,3.22c2.74,0,5.21-0.49,7.4-1.48
		c2.19-0.98,3.87-2.37,5.06-4.15H499.52z M459.8,64.54h28.82c-1.01-3.61-2.72-6.34-5.13-8.2s-5.43-2.79-9.04-2.79
		c-3.75,0-6.92,0.97-9.51,2.9C462.35,58.38,460.64,61.08,459.8,64.54z"/>
	<path class="st4" d="M540.2,119.14h-28.7v-10.88h8.05l6.7-13.77L509.2,54.65h-6.38V43.83h26.07v10.82h-6.81l11,26.78l11.42-26.78
		h-6.6V43.83h25.58v10.82h-6.28l-25.05,53.62h8.05V119.14z"/>
</g>
</svg>
